G04*
G04 #@! TF.GenerationSoftware,Altium Limited,Altium Designer,21.6.4 (81)*
G04*
G04 Layer_Color=32768*
%FSAX44Y44*%
%MOMM*%
G71*
G04*
G04 #@! TF.SameCoordinates,DC76A47B-B506-48B7-9AA2-343420C74FD4*
G04*
G04*
G04 #@! TF.FilePolarity,Positive*
G04*
G01*
G75*
%ADD42C,0.1000*%
%ADD43C,0.0500*%
D42*
X00391240Y00910590D02*
X00401240D01*
X00396240Y00905590D02*
Y00915590D01*
X00393780Y00814070D02*
X00403780D01*
X00398780Y00809070D02*
Y00819070D01*
X00378460Y00661750D02*
Y00671750D01*
X00373460Y00666750D02*
X00383460D01*
X00102950Y00779780D02*
X00112950D01*
X00107950Y00774780D02*
Y00784780D01*
D43*
X00166500Y00672100D02*
X00341500D01*
Y00925850D01*
X00166500D02*
X00341500D01*
X00166500Y00672100D02*
Y00925850D01*
X00355240Y00879590D02*
X00437240D01*
X00355240D02*
Y00941590D01*
X00437240D01*
Y00879590D02*
Y00941590D01*
X00357780Y00783070D02*
X00439780D01*
X00357780D02*
Y00845070D01*
X00439780D01*
Y00783070D02*
Y00845070D01*
X00147990Y00596640D02*
Y00627640D01*
X00034890D02*
X00147990D01*
X00034890Y00596640D02*
Y00627640D01*
Y00596640D02*
X00147990D01*
X00086440Y00612140D02*
X00096440D01*
X00091440Y00607140D02*
Y00617140D01*
X00356960Y00679250D02*
X00399960D01*
X00356960Y00654250D02*
X00399960D01*
X00356960D02*
Y00679250D01*
X00399960Y00654250D02*
Y00679250D01*
X00143350Y00676280D02*
Y00883280D01*
X00034550Y00676280D02*
Y00883280D01*
Y00676280D02*
X00143350D01*
X00034550Y00883280D02*
X00143350D01*
X00149260Y00928110D02*
Y00959110D01*
X00036160D02*
X00149260D01*
X00036160Y00928110D02*
Y00959110D01*
Y00928110D02*
X00149260D01*
X00087710Y00943610D02*
X00097710D01*
X00092710Y00938610D02*
Y00948610D01*
X00396240Y00605870D02*
Y00615870D01*
X00391240Y00610870D02*
X00401240D01*
X00365090Y00626370D02*
X00427390D01*
Y00595370D02*
Y00626370D01*
X00365090Y00595370D02*
X00427390D01*
X00365090D02*
Y00626370D01*
M02*
