G04*
G04 #@! TF.GenerationSoftware,Altium Limited,Altium Designer,21.6.4 (81)*
G04*
G04 Layer_Color=8421504*
%FSAX44Y44*%
%MOMM*%
G71*
G04*
G04 #@! TF.SameCoordinates,DC76A47B-B506-48B7-9AA2-343420C74FD4*
G04*
G04*
G04 #@! TF.FilePolarity,Positive*
G04*
G01*
G75*
%ADD15R,2.0000X1.2000*%
%ADD16R,1.1000X1.7000*%
%ADD17R,0.7500X1.0000*%
%ADD18R,1.8526X3.5042*%
%ADD19R,1.4000X1.5000*%
D15*
X00179000Y00838350D02*
D03*
Y00818350D02*
D03*
Y00798350D02*
D03*
Y00778350D02*
D03*
Y00758350D02*
D03*
Y00738350D02*
D03*
Y00718350D02*
D03*
Y00698350D02*
D03*
X00329000D02*
D03*
Y00718350D02*
D03*
Y00738350D02*
D03*
Y00758350D02*
D03*
Y00778350D02*
D03*
Y00798350D02*
D03*
Y00818350D02*
D03*
Y00838350D02*
D03*
D16*
X00204000Y00683350D02*
D03*
X00224000D02*
D03*
X00244000D02*
D03*
X00264000D02*
D03*
X00284000D02*
D03*
X00304000D02*
D03*
D17*
X00178950Y00969010D02*
D03*
X00163950D02*
D03*
X00342780D02*
D03*
X00327780D02*
D03*
X00299600D02*
D03*
X00284600D02*
D03*
X00258960D02*
D03*
X00243960D02*
D03*
X00218440D02*
D03*
X00203440D02*
D03*
D18*
X00368598Y00728980D02*
D03*
X00406102D02*
D03*
D19*
X00368960Y00666750D02*
D03*
X00387960D02*
D03*
M02*
