G04*
G04 #@! TF.GenerationSoftware,Altium Limited,Altium Designer,21.6.4 (81)*
G04*
G04 Layer_Color=16711935*
%FSAX44Y44*%
%MOMM*%
G71*
G04*
G04 #@! TF.SameCoordinates,DC76A47B-B506-48B7-9AA2-343420C74FD4*
G04*
G04*
G04 #@! TF.FilePolarity,Negative*
G04*
G01*
G75*
%ADD23C,1.7272*%
%ADD24R,1.7032X1.7032*%
%ADD25C,1.7032*%
%ADD26C,1.7232*%
%ADD27R,1.7232X1.7232*%
%ADD28R,2.0532X2.0532*%
%ADD29C,2.0532*%
%ADD30C,1.4732*%
D23*
X00477520Y00920750D02*
D03*
X00017780Y01026160D02*
D03*
X00469900Y00580390D02*
D03*
X00017780D02*
D03*
X00358140Y01026160D02*
D03*
D24*
X00363740Y00933090D02*
D03*
X00366280Y00836570D02*
D03*
X00133350Y00690880D02*
D03*
D25*
X00363740Y00888090D02*
D03*
X00428740D02*
D03*
Y00933090D02*
D03*
X00366280Y00791570D02*
D03*
X00431280D02*
D03*
Y00836570D02*
D03*
X00082550Y00703580D02*
D03*
X00133350Y00716280D02*
D03*
X00082550Y00728980D02*
D03*
X00133350Y00741680D02*
D03*
X00082550Y00754380D02*
D03*
X00133350Y00767080D02*
D03*
X00082550Y00779780D02*
D03*
X00133350Y00792480D02*
D03*
X00082550Y00805180D02*
D03*
X00133350Y00817880D02*
D03*
X00082550Y00830580D02*
D03*
X00133350Y00843280D02*
D03*
X00082550Y00855980D02*
D03*
X00133350Y00868680D02*
D03*
D26*
X00053340Y00612140D02*
D03*
X00078740D02*
D03*
X00104140D02*
D03*
X00054610Y00943610D02*
D03*
X00080010D02*
D03*
X00105410D02*
D03*
X00408940Y00610870D02*
D03*
D27*
X00129540Y00612140D02*
D03*
X00130810Y00943610D02*
D03*
X00383540Y00610870D02*
D03*
D28*
X00274320Y00607060D02*
D03*
D29*
X00223520D02*
D03*
D30*
X00273440Y00777630D02*
D03*
X00137160Y00631960D02*
D03*
X00115696Y00830580D02*
D03*
X00153670Y00723900D02*
D03*
X00303530Y00819150D02*
D03*
X00336486Y00669555D02*
D03*
X00200280Y00758350D02*
D03*
X00186241Y00933895D02*
D03*
X00280190Y00817880D02*
D03*
X00235458Y00840740D02*
D03*
X00281686Y00715518D02*
D03*
X00149237Y00980660D02*
D03*
X00305816Y00609600D02*
D03*
M02*
