G04*
G04 #@! TF.GenerationSoftware,Altium Limited,Altium Designer,21.6.4 (81)*
G04*
G04 Layer_Color=16711935*
%FSAX44Y44*%
%MOMM*%
G71*
G04*
G04 #@! TF.SameCoordinates,DC76A47B-B506-48B7-9AA2-343420C74FD4*
G04*
G04*
G04 #@! TF.FilePolarity,Positive*
G04*
G01*
G75*
%ADD12C,0.2000*%
G36*
X00181509Y00974687D02*
X00178948D01*
X00178606Y00972958D01*
X00178615Y00972967D01*
X00178634Y00972976D01*
X00178661Y00972995D01*
X00178708Y00973023D01*
X00178763Y00973050D01*
X00178828Y00973087D01*
X00178976Y00973161D01*
X00179161Y00973235D01*
X00179364Y00973300D01*
X00179586Y00973346D01*
X00179697Y00973365D01*
X00179900D01*
X00179956Y00973355D01*
X00180030Y00973346D01*
X00180113Y00973337D01*
X00180205Y00973318D01*
X00180307Y00973291D01*
X00180529Y00973226D01*
X00180649Y00973180D01*
X00180769Y00973115D01*
X00180890Y00973050D01*
X00181010Y00972976D01*
X00181121Y00972884D01*
X00181232Y00972782D01*
X00181241Y00972773D01*
X00181259Y00972754D01*
X00181287Y00972727D01*
X00181324Y00972680D01*
X00181370Y00972616D01*
X00181417Y00972551D01*
X00181472Y00972468D01*
X00181528Y00972375D01*
X00181574Y00972274D01*
X00181629Y00972163D01*
X00181675Y00972033D01*
X00181722Y00971904D01*
X00181759Y00971765D01*
X00181786Y00971608D01*
X00181805Y00971451D01*
X00181814Y00971284D01*
Y00971275D01*
Y00971247D01*
Y00971201D01*
X00181805Y00971136D01*
X00181796Y00971062D01*
X00181786Y00970979D01*
X00181768Y00970878D01*
X00181749Y00970776D01*
X00181694Y00970535D01*
X00181602Y00970286D01*
X00181546Y00970156D01*
X00181472Y00970036D01*
X00181398Y00969907D01*
X00181306Y00969787D01*
X00181296Y00969777D01*
X00181278Y00969750D01*
X00181241Y00969713D01*
X00181195Y00969666D01*
X00181130Y00969611D01*
X00181056Y00969537D01*
X00180964Y00969472D01*
X00180862Y00969398D01*
X00180751Y00969324D01*
X00180621Y00969259D01*
X00180483Y00969195D01*
X00180335Y00969130D01*
X00180178Y00969084D01*
X00180002Y00969047D01*
X00179817Y00969019D01*
X00179623Y00969010D01*
X00179540D01*
X00179475Y00969019D01*
X00179401Y00969028D01*
X00179318Y00969038D01*
X00179216Y00969047D01*
X00179114Y00969075D01*
X00178883Y00969130D01*
X00178652Y00969213D01*
X00178532Y00969269D01*
X00178412Y00969333D01*
X00178301Y00969407D01*
X00178190Y00969491D01*
X00178181Y00969500D01*
X00178162Y00969509D01*
X00178144Y00969546D01*
X00178107Y00969583D01*
X00178060Y00969629D01*
X00178014Y00969685D01*
X00177959Y00969759D01*
X00177913Y00969842D01*
X00177857Y00969925D01*
X00177802Y00970027D01*
X00177700Y00970249D01*
X00177617Y00970508D01*
X00177589Y00970646D01*
X00177570Y00970794D01*
X00178393Y00970859D01*
Y00970850D01*
Y00970831D01*
X00178403Y00970804D01*
X00178412Y00970757D01*
X00178440Y00970656D01*
X00178477Y00970517D01*
X00178532Y00970378D01*
X00178606Y00970221D01*
X00178698Y00970082D01*
X00178809Y00969953D01*
X00178828Y00969944D01*
X00178865Y00969907D01*
X00178939Y00969861D01*
X00179041Y00969805D01*
X00179151Y00969750D01*
X00179290Y00969703D01*
X00179447Y00969666D01*
X00179623Y00969657D01*
X00179678D01*
X00179715Y00969666D01*
X00179826Y00969676D01*
X00179956Y00969713D01*
X00180113Y00969759D01*
X00180270Y00969833D01*
X00180437Y00969944D01*
X00180511Y00970008D01*
X00180585Y00970082D01*
X00180594Y00970092D01*
X00180603Y00970101D01*
X00180621Y00970129D01*
X00180649Y00970156D01*
X00180714Y00970258D01*
X00180788Y00970387D01*
X00180853Y00970545D01*
X00180917Y00970739D01*
X00180964Y00970970D01*
X00180982Y00971090D01*
Y00971220D01*
Y00971229D01*
Y00971247D01*
Y00971284D01*
X00180973Y00971330D01*
Y00971386D01*
X00180964Y00971451D01*
X00180936Y00971599D01*
X00180890Y00971774D01*
X00180825Y00971950D01*
X00180732Y00972116D01*
X00180603Y00972274D01*
Y00972283D01*
X00180585Y00972292D01*
X00180538Y00972338D01*
X00180455Y00972403D01*
X00180344Y00972477D01*
X00180196Y00972542D01*
X00180030Y00972606D01*
X00179836Y00972653D01*
X00179725Y00972671D01*
X00179549D01*
X00179475Y00972662D01*
X00179383Y00972653D01*
X00179272Y00972625D01*
X00179161Y00972597D01*
X00179041Y00972551D01*
X00178920Y00972495D01*
X00178911Y00972486D01*
X00178874Y00972468D01*
X00178819Y00972421D01*
X00178745Y00972375D01*
X00178671Y00972311D01*
X00178597Y00972227D01*
X00178514Y00972144D01*
X00178449Y00972042D01*
X00177709Y00972144D01*
X00178329Y00975436D01*
X00181509D01*
Y00974687D01*
D02*
G37*
G36*
X00174492Y00975509D02*
X00174575D01*
X00174769Y00975500D01*
X00174972Y00975472D01*
X00175194Y00975445D01*
X00175398Y00975399D01*
X00175499Y00975371D01*
X00175583Y00975343D01*
X00175592D01*
X00175601Y00975334D01*
X00175657Y00975306D01*
X00175740Y00975269D01*
X00175842Y00975204D01*
X00175952Y00975121D01*
X00176073Y00975010D01*
X00176184Y00974881D01*
X00176295Y00974733D01*
Y00974724D01*
X00176304Y00974714D01*
X00176341Y00974659D01*
X00176378Y00974566D01*
X00176433Y00974446D01*
X00176479Y00974308D01*
X00176526Y00974141D01*
X00176553Y00973966D01*
X00176563Y00973771D01*
Y00973762D01*
Y00973744D01*
Y00973707D01*
X00176553Y00973660D01*
Y00973596D01*
X00176544Y00973531D01*
X00176507Y00973374D01*
X00176452Y00973189D01*
X00176378Y00972995D01*
X00176267Y00972801D01*
X00176193Y00972708D01*
X00176119Y00972616D01*
X00176110Y00972606D01*
X00176100Y00972597D01*
X00176073Y00972569D01*
X00176036Y00972542D01*
X00175989Y00972505D01*
X00175934Y00972468D01*
X00175860Y00972421D01*
X00175786Y00972366D01*
X00175694Y00972320D01*
X00175592Y00972274D01*
X00175481Y00972218D01*
X00175361Y00972172D01*
X00175222Y00972135D01*
X00175083Y00972089D01*
X00174926Y00972061D01*
X00174760Y00972033D01*
X00174778Y00972024D01*
X00174815Y00972005D01*
X00174871Y00971969D01*
X00174945Y00971932D01*
X00175111Y00971830D01*
X00175194Y00971765D01*
X00175268Y00971710D01*
X00175287Y00971691D01*
X00175333Y00971645D01*
X00175407Y00971571D01*
X00175499Y00971478D01*
X00175601Y00971349D01*
X00175721Y00971210D01*
X00175842Y00971044D01*
X00175971Y00970859D01*
X00177071Y00969121D01*
X00176017D01*
X00175176Y00970452D01*
Y00970461D01*
X00175157Y00970480D01*
X00175139Y00970508D01*
X00175111Y00970545D01*
X00175046Y00970646D01*
X00174963Y00970776D01*
X00174862Y00970915D01*
X00174760Y00971062D01*
X00174658Y00971201D01*
X00174566Y00971330D01*
X00174556Y00971340D01*
X00174529Y00971377D01*
X00174482Y00971432D01*
X00174418Y00971497D01*
X00174279Y00971636D01*
X00174205Y00971700D01*
X00174131Y00971756D01*
X00174122Y00971765D01*
X00174103Y00971774D01*
X00174066Y00971793D01*
X00174011Y00971821D01*
X00173955Y00971848D01*
X00173891Y00971876D01*
X00173743Y00971922D01*
X00173734D01*
X00173715Y00971932D01*
X00173678D01*
X00173632Y00971941D01*
X00173567Y00971950D01*
X00173493D01*
X00173391Y00971959D01*
X00172300D01*
Y00969121D01*
X00171450D01*
Y00975519D01*
X00174418D01*
X00174492Y00975509D01*
D02*
G37*
G36*
X00344359Y00969010D02*
X00343573D01*
Y00974012D01*
X00343564Y00974003D01*
X00343518Y00973966D01*
X00343462Y00973910D01*
X00343370Y00973845D01*
X00343268Y00973762D01*
X00343139Y00973670D01*
X00342991Y00973568D01*
X00342824Y00973466D01*
X00342815D01*
X00342806Y00973457D01*
X00342750Y00973420D01*
X00342658Y00973374D01*
X00342547Y00973318D01*
X00342417Y00973254D01*
X00342279Y00973189D01*
X00342140Y00973124D01*
X00342001Y00973069D01*
Y00973827D01*
X00342011D01*
X00342029Y00973845D01*
X00342066Y00973855D01*
X00342112Y00973882D01*
X00342168Y00973910D01*
X00342233Y00973947D01*
X00342390Y00974040D01*
X00342575Y00974141D01*
X00342760Y00974271D01*
X00342954Y00974418D01*
X00343148Y00974576D01*
X00343157Y00974585D01*
X00343166Y00974594D01*
X00343194Y00974622D01*
X00343231Y00974650D01*
X00343314Y00974742D01*
X00343425Y00974853D01*
X00343536Y00974983D01*
X00343656Y00975130D01*
X00343758Y00975278D01*
X00343851Y00975436D01*
X00344359D01*
Y00969010D01*
D02*
G37*
G36*
X00338322Y00975399D02*
X00338405D01*
X00338599Y00975389D01*
X00338802Y00975362D01*
X00339024Y00975334D01*
X00339228Y00975288D01*
X00339329Y00975260D01*
X00339413Y00975232D01*
X00339422D01*
X00339431Y00975223D01*
X00339487Y00975195D01*
X00339570Y00975158D01*
X00339672Y00975094D01*
X00339782Y00975010D01*
X00339903Y00974899D01*
X00340014Y00974770D01*
X00340125Y00974622D01*
Y00974613D01*
X00340134Y00974604D01*
X00340171Y00974548D01*
X00340208Y00974455D01*
X00340263Y00974335D01*
X00340309Y00974197D01*
X00340356Y00974030D01*
X00340383Y00973855D01*
X00340393Y00973660D01*
Y00973651D01*
Y00973633D01*
Y00973596D01*
X00340383Y00973549D01*
Y00973485D01*
X00340374Y00973420D01*
X00340337Y00973263D01*
X00340282Y00973078D01*
X00340208Y00972884D01*
X00340097Y00972690D01*
X00340023Y00972597D01*
X00339949Y00972505D01*
X00339940Y00972495D01*
X00339930Y00972486D01*
X00339903Y00972458D01*
X00339866Y00972431D01*
X00339819Y00972394D01*
X00339764Y00972357D01*
X00339690Y00972311D01*
X00339616Y00972255D01*
X00339524Y00972209D01*
X00339422Y00972163D01*
X00339311Y00972107D01*
X00339191Y00972061D01*
X00339052Y00972024D01*
X00338913Y00971978D01*
X00338756Y00971950D01*
X00338590Y00971922D01*
X00338608Y00971913D01*
X00338645Y00971895D01*
X00338701Y00971858D01*
X00338775Y00971821D01*
X00338941Y00971719D01*
X00339024Y00971654D01*
X00339098Y00971599D01*
X00339117Y00971580D01*
X00339163Y00971534D01*
X00339237Y00971460D01*
X00339329Y00971367D01*
X00339431Y00971238D01*
X00339551Y00971099D01*
X00339672Y00970933D01*
X00339801Y00970748D01*
X00340901Y00969010D01*
X00339847D01*
X00339006Y00970341D01*
Y00970350D01*
X00338987Y00970369D01*
X00338969Y00970397D01*
X00338941Y00970434D01*
X00338876Y00970535D01*
X00338793Y00970665D01*
X00338691Y00970804D01*
X00338590Y00970951D01*
X00338488Y00971090D01*
X00338396Y00971220D01*
X00338386Y00971229D01*
X00338359Y00971266D01*
X00338312Y00971321D01*
X00338248Y00971386D01*
X00338109Y00971525D01*
X00338035Y00971589D01*
X00337961Y00971645D01*
X00337952Y00971654D01*
X00337933Y00971663D01*
X00337896Y00971682D01*
X00337841Y00971710D01*
X00337785Y00971737D01*
X00337721Y00971765D01*
X00337573Y00971811D01*
X00337564D01*
X00337545Y00971821D01*
X00337508D01*
X00337462Y00971830D01*
X00337397Y00971839D01*
X00337323D01*
X00337221Y00971848D01*
X00336130D01*
Y00969010D01*
X00335280D01*
Y00975408D01*
X00338248D01*
X00338322Y00975399D01*
D02*
G37*
G36*
X00300495Y00975426D02*
X00300569Y00975417D01*
X00300661Y00975408D01*
X00300763Y00975389D01*
X00300865Y00975371D01*
X00301105Y00975306D01*
X00301346Y00975214D01*
X00301466Y00975158D01*
X00301586Y00975094D01*
X00301697Y00975010D01*
X00301798Y00974918D01*
X00301808Y00974909D01*
X00301826Y00974899D01*
X00301845Y00974862D01*
X00301882Y00974825D01*
X00301928Y00974779D01*
X00301974Y00974714D01*
X00302020Y00974650D01*
X00302076Y00974566D01*
X00302168Y00974391D01*
X00302261Y00974169D01*
X00302298Y00974058D01*
X00302316Y00973929D01*
X00302335Y00973799D01*
X00302344Y00973660D01*
Y00973642D01*
Y00973596D01*
X00302335Y00973522D01*
X00302325Y00973420D01*
X00302307Y00973309D01*
X00302270Y00973180D01*
X00302233Y00973041D01*
X00302178Y00972902D01*
X00302168Y00972884D01*
X00302150Y00972838D01*
X00302113Y00972764D01*
X00302057Y00972662D01*
X00301983Y00972551D01*
X00301891Y00972412D01*
X00301780Y00972274D01*
X00301651Y00972116D01*
X00301632Y00972098D01*
X00301586Y00972042D01*
X00301540Y00971996D01*
X00301493Y00971950D01*
X00301438Y00971895D01*
X00301364Y00971821D01*
X00301290Y00971747D01*
X00301197Y00971663D01*
X00301105Y00971571D01*
X00300994Y00971469D01*
X00300874Y00971367D01*
X00300744Y00971247D01*
X00300597Y00971127D01*
X00300449Y00970998D01*
X00300439Y00970988D01*
X00300421Y00970970D01*
X00300384Y00970942D01*
X00300338Y00970905D01*
X00300282Y00970850D01*
X00300217Y00970794D01*
X00300070Y00970674D01*
X00299912Y00970535D01*
X00299764Y00970397D01*
X00299635Y00970276D01*
X00299580Y00970230D01*
X00299533Y00970184D01*
X00299524Y00970175D01*
X00299496Y00970147D01*
X00299459Y00970110D01*
X00299413Y00970055D01*
X00299367Y00969990D01*
X00299311Y00969925D01*
X00299200Y00969768D01*
X00302353D01*
Y00969010D01*
X00298109D01*
Y00969019D01*
Y00969056D01*
Y00969112D01*
X00298119Y00969185D01*
X00298128Y00969269D01*
X00298146Y00969361D01*
X00298165Y00969454D01*
X00298202Y00969555D01*
Y00969565D01*
X00298211Y00969574D01*
X00298230Y00969629D01*
X00298267Y00969713D01*
X00298322Y00969824D01*
X00298396Y00969953D01*
X00298489Y00970101D01*
X00298590Y00970249D01*
X00298720Y00970406D01*
Y00970415D01*
X00298738Y00970424D01*
X00298784Y00970480D01*
X00298868Y00970563D01*
X00298988Y00970683D01*
X00299126Y00970822D01*
X00299302Y00970988D01*
X00299515Y00971173D01*
X00299746Y00971367D01*
X00299755Y00971377D01*
X00299792Y00971404D01*
X00299848Y00971451D01*
X00299912Y00971506D01*
X00299996Y00971580D01*
X00300097Y00971663D01*
X00300199Y00971756D01*
X00300319Y00971858D01*
X00300550Y00972079D01*
X00300781Y00972301D01*
X00300892Y00972412D01*
X00300994Y00972523D01*
X00301087Y00972625D01*
X00301161Y00972727D01*
Y00972736D01*
X00301179Y00972745D01*
X00301197Y00972773D01*
X00301216Y00972810D01*
X00301281Y00972912D01*
X00301355Y00973032D01*
X00301419Y00973180D01*
X00301484Y00973337D01*
X00301521Y00973512D01*
X00301540Y00973679D01*
Y00973688D01*
Y00973697D01*
X00301530Y00973753D01*
X00301521Y00973845D01*
X00301493Y00973947D01*
X00301456Y00974077D01*
X00301392Y00974206D01*
X00301308Y00974335D01*
X00301197Y00974465D01*
X00301179Y00974483D01*
X00301133Y00974520D01*
X00301068Y00974566D01*
X00300966Y00974631D01*
X00300837Y00974687D01*
X00300689Y00974742D01*
X00300513Y00974779D01*
X00300319Y00974788D01*
X00300264D01*
X00300227Y00974779D01*
X00300116Y00974770D01*
X00299986Y00974742D01*
X00299848Y00974705D01*
X00299690Y00974640D01*
X00299543Y00974557D01*
X00299404Y00974446D01*
X00299385Y00974428D01*
X00299348Y00974382D01*
X00299293Y00974308D01*
X00299237Y00974197D01*
X00299173Y00974067D01*
X00299117Y00973901D01*
X00299080Y00973716D01*
X00299062Y00973503D01*
X00298257Y00973586D01*
Y00973596D01*
X00298267Y00973623D01*
Y00973670D01*
X00298276Y00973734D01*
X00298294Y00973808D01*
X00298313Y00973892D01*
X00298341Y00973993D01*
X00298368Y00974095D01*
X00298442Y00974317D01*
X00298553Y00974539D01*
X00298618Y00974650D01*
X00298701Y00974761D01*
X00298784Y00974862D01*
X00298877Y00974955D01*
X00298886Y00974964D01*
X00298905Y00974973D01*
X00298932Y00975001D01*
X00298979Y00975029D01*
X00299034Y00975066D01*
X00299099Y00975103D01*
X00299173Y00975149D01*
X00299265Y00975195D01*
X00299367Y00975241D01*
X00299478Y00975288D01*
X00299598Y00975325D01*
X00299727Y00975362D01*
X00299866Y00975389D01*
X00300014Y00975417D01*
X00300171Y00975426D01*
X00300338Y00975436D01*
X00300430D01*
X00300495Y00975426D01*
D02*
G37*
G36*
X00295142Y00975399D02*
X00295225D01*
X00295419Y00975389D01*
X00295622Y00975362D01*
X00295844Y00975334D01*
X00296048Y00975288D01*
X00296149Y00975260D01*
X00296233Y00975232D01*
X00296242D01*
X00296251Y00975223D01*
X00296307Y00975195D01*
X00296390Y00975158D01*
X00296492Y00975094D01*
X00296602Y00975010D01*
X00296723Y00974899D01*
X00296834Y00974770D01*
X00296945Y00974622D01*
Y00974613D01*
X00296954Y00974604D01*
X00296991Y00974548D01*
X00297028Y00974455D01*
X00297083Y00974335D01*
X00297129Y00974197D01*
X00297176Y00974030D01*
X00297203Y00973855D01*
X00297213Y00973660D01*
Y00973651D01*
Y00973633D01*
Y00973596D01*
X00297203Y00973549D01*
Y00973485D01*
X00297194Y00973420D01*
X00297157Y00973263D01*
X00297102Y00973078D01*
X00297028Y00972884D01*
X00296917Y00972690D01*
X00296843Y00972597D01*
X00296769Y00972505D01*
X00296760Y00972495D01*
X00296750Y00972486D01*
X00296723Y00972458D01*
X00296686Y00972431D01*
X00296639Y00972394D01*
X00296584Y00972357D01*
X00296510Y00972311D01*
X00296436Y00972255D01*
X00296344Y00972209D01*
X00296242Y00972163D01*
X00296131Y00972107D01*
X00296011Y00972061D01*
X00295872Y00972024D01*
X00295733Y00971978D01*
X00295576Y00971950D01*
X00295410Y00971922D01*
X00295428Y00971913D01*
X00295465Y00971895D01*
X00295521Y00971858D01*
X00295595Y00971821D01*
X00295761Y00971719D01*
X00295844Y00971654D01*
X00295918Y00971599D01*
X00295937Y00971580D01*
X00295983Y00971534D01*
X00296057Y00971460D01*
X00296149Y00971367D01*
X00296251Y00971238D01*
X00296371Y00971099D01*
X00296492Y00970933D01*
X00296621Y00970748D01*
X00297721Y00969010D01*
X00296667D01*
X00295826Y00970341D01*
Y00970350D01*
X00295807Y00970369D01*
X00295789Y00970397D01*
X00295761Y00970434D01*
X00295696Y00970535D01*
X00295613Y00970665D01*
X00295511Y00970804D01*
X00295410Y00970951D01*
X00295308Y00971090D01*
X00295216Y00971220D01*
X00295206Y00971229D01*
X00295179Y00971266D01*
X00295132Y00971321D01*
X00295068Y00971386D01*
X00294929Y00971525D01*
X00294855Y00971589D01*
X00294781Y00971645D01*
X00294772Y00971654D01*
X00294753Y00971663D01*
X00294716Y00971682D01*
X00294661Y00971710D01*
X00294605Y00971737D01*
X00294541Y00971765D01*
X00294393Y00971811D01*
X00294384D01*
X00294365Y00971821D01*
X00294328D01*
X00294282Y00971830D01*
X00294217Y00971839D01*
X00294143D01*
X00294041Y00971848D01*
X00292950D01*
Y00969010D01*
X00292100D01*
Y00975408D01*
X00295068D01*
X00295142Y00975399D01*
D02*
G37*
G36*
X00259781Y00975537D02*
X00259901Y00975519D01*
X00260049Y00975491D01*
X00260215Y00975445D01*
X00260382Y00975389D01*
X00260548Y00975315D01*
X00260557D01*
X00260567Y00975306D01*
X00260622Y00975278D01*
X00260706Y00975223D01*
X00260798Y00975158D01*
X00260909Y00975066D01*
X00261020Y00974964D01*
X00261131Y00974844D01*
X00261223Y00974705D01*
X00261232Y00974687D01*
X00261260Y00974640D01*
X00261297Y00974557D01*
X00261343Y00974455D01*
X00261390Y00974335D01*
X00261427Y00974197D01*
X00261454Y00974040D01*
X00261464Y00973882D01*
Y00973864D01*
Y00973808D01*
X00261454Y00973734D01*
X00261436Y00973633D01*
X00261408Y00973512D01*
X00261362Y00973383D01*
X00261306Y00973254D01*
X00261232Y00973124D01*
X00261223Y00973106D01*
X00261196Y00973069D01*
X00261140Y00973004D01*
X00261066Y00972930D01*
X00260974Y00972847D01*
X00260863Y00972754D01*
X00260733Y00972671D01*
X00260576Y00972588D01*
X00260585D01*
X00260604Y00972579D01*
X00260632Y00972569D01*
X00260669Y00972560D01*
X00260770Y00972523D01*
X00260900Y00972468D01*
X00261048Y00972394D01*
X00261196Y00972301D01*
X00261334Y00972181D01*
X00261464Y00972042D01*
X00261473Y00972024D01*
X00261510Y00971969D01*
X00261565Y00971876D01*
X00261621Y00971756D01*
X00261676Y00971608D01*
X00261732Y00971432D01*
X00261769Y00971229D01*
X00261778Y00971007D01*
Y00970998D01*
Y00970970D01*
Y00970924D01*
X00261769Y00970868D01*
X00261759Y00970794D01*
X00261741Y00970711D01*
X00261723Y00970619D01*
X00261704Y00970517D01*
X00261630Y00970295D01*
X00261575Y00970175D01*
X00261519Y00970064D01*
X00261445Y00969944D01*
X00261362Y00969824D01*
X00261269Y00969703D01*
X00261159Y00969592D01*
X00261149Y00969583D01*
X00261131Y00969565D01*
X00261094Y00969537D01*
X00261048Y00969500D01*
X00260992Y00969454D01*
X00260918Y00969407D01*
X00260835Y00969352D01*
X00260733Y00969306D01*
X00260632Y00969250D01*
X00260511Y00969195D01*
X00260391Y00969149D01*
X00260252Y00969102D01*
X00260105Y00969065D01*
X00259947Y00969038D01*
X00259790Y00969019D01*
X00259615Y00969010D01*
X00259531D01*
X00259476Y00969019D01*
X00259402Y00969028D01*
X00259319Y00969038D01*
X00259226Y00969056D01*
X00259125Y00969075D01*
X00258903Y00969130D01*
X00258671Y00969222D01*
X00258551Y00969278D01*
X00258440Y00969343D01*
X00258329Y00969426D01*
X00258218Y00969509D01*
X00258209Y00969518D01*
X00258191Y00969537D01*
X00258163Y00969565D01*
X00258135Y00969602D01*
X00258089Y00969648D01*
X00258043Y00969713D01*
X00257987Y00969777D01*
X00257932Y00969861D01*
X00257876Y00969953D01*
X00257821Y00970045D01*
X00257719Y00970267D01*
X00257636Y00970526D01*
X00257608Y00970665D01*
X00257590Y00970813D01*
X00258376Y00970915D01*
Y00970905D01*
X00258385Y00970887D01*
X00258394Y00970850D01*
X00258403Y00970804D01*
X00258413Y00970748D01*
X00258431Y00970683D01*
X00258477Y00970545D01*
X00258542Y00970378D01*
X00258625Y00970221D01*
X00258718Y00970073D01*
X00258829Y00969944D01*
X00258847Y00969934D01*
X00258884Y00969898D01*
X00258958Y00969851D01*
X00259051Y00969805D01*
X00259161Y00969750D01*
X00259300Y00969703D01*
X00259457Y00969666D01*
X00259624Y00969657D01*
X00259679D01*
X00259716Y00969666D01*
X00259818Y00969676D01*
X00259947Y00969703D01*
X00260095Y00969750D01*
X00260252Y00969814D01*
X00260410Y00969907D01*
X00260557Y00970036D01*
X00260576Y00970055D01*
X00260622Y00970110D01*
X00260678Y00970193D01*
X00260752Y00970304D01*
X00260826Y00970443D01*
X00260881Y00970600D01*
X00260927Y00970785D01*
X00260946Y00970988D01*
Y00970998D01*
Y00971016D01*
Y00971044D01*
X00260937Y00971081D01*
X00260927Y00971183D01*
X00260900Y00971303D01*
X00260863Y00971451D01*
X00260798Y00971599D01*
X00260706Y00971747D01*
X00260585Y00971885D01*
X00260567Y00971904D01*
X00260521Y00971941D01*
X00260447Y00971996D01*
X00260345Y00972061D01*
X00260215Y00972126D01*
X00260058Y00972181D01*
X00259883Y00972218D01*
X00259688Y00972237D01*
X00259605D01*
X00259541Y00972227D01*
X00259457Y00972218D01*
X00259365Y00972200D01*
X00259254Y00972181D01*
X00259134Y00972153D01*
X00259226Y00972847D01*
X00259272D01*
X00259309Y00972838D01*
X00259430D01*
X00259531Y00972856D01*
X00259652Y00972875D01*
X00259790Y00972902D01*
X00259947Y00972949D01*
X00260095Y00973013D01*
X00260252Y00973096D01*
X00260262D01*
X00260271Y00973106D01*
X00260317Y00973143D01*
X00260382Y00973207D01*
X00260456Y00973291D01*
X00260530Y00973411D01*
X00260595Y00973549D01*
X00260641Y00973707D01*
X00260659Y00973799D01*
Y00973901D01*
Y00973910D01*
Y00973919D01*
Y00973975D01*
X00260641Y00974049D01*
X00260622Y00974150D01*
X00260585Y00974261D01*
X00260539Y00974382D01*
X00260465Y00974502D01*
X00260363Y00974613D01*
X00260354Y00974622D01*
X00260308Y00974659D01*
X00260243Y00974705D01*
X00260160Y00974761D01*
X00260049Y00974807D01*
X00259920Y00974853D01*
X00259772Y00974890D01*
X00259605Y00974899D01*
X00259531D01*
X00259448Y00974881D01*
X00259337Y00974862D01*
X00259217Y00974825D01*
X00259097Y00974779D01*
X00258967Y00974705D01*
X00258847Y00974613D01*
X00258838Y00974604D01*
X00258801Y00974557D01*
X00258745Y00974492D01*
X00258681Y00974400D01*
X00258616Y00974280D01*
X00258551Y00974132D01*
X00258496Y00973956D01*
X00258459Y00973753D01*
X00257673Y00973892D01*
Y00973901D01*
X00257682Y00973929D01*
X00257691Y00973966D01*
X00257701Y00974021D01*
X00257719Y00974086D01*
X00257747Y00974160D01*
X00257802Y00974335D01*
X00257895Y00974539D01*
X00258006Y00974742D01*
X00258144Y00974936D01*
X00258320Y00975112D01*
X00258329Y00975121D01*
X00258348Y00975130D01*
X00258376Y00975149D01*
X00258413Y00975177D01*
X00258459Y00975214D01*
X00258524Y00975251D01*
X00258588Y00975288D01*
X00258671Y00975334D01*
X00258856Y00975408D01*
X00259069Y00975482D01*
X00259319Y00975528D01*
X00259448Y00975546D01*
X00259679D01*
X00259781Y00975537D01*
D02*
G37*
G36*
X00254502Y00975509D02*
X00254585D01*
X00254779Y00975500D01*
X00254982Y00975472D01*
X00255204Y00975445D01*
X00255408Y00975399D01*
X00255509Y00975371D01*
X00255593Y00975343D01*
X00255602D01*
X00255611Y00975334D01*
X00255667Y00975306D01*
X00255750Y00975269D01*
X00255851Y00975204D01*
X00255963Y00975121D01*
X00256083Y00975010D01*
X00256194Y00974881D01*
X00256305Y00974733D01*
Y00974724D01*
X00256314Y00974714D01*
X00256351Y00974659D01*
X00256388Y00974566D01*
X00256443Y00974446D01*
X00256490Y00974308D01*
X00256536Y00974141D01*
X00256563Y00973966D01*
X00256573Y00973771D01*
Y00973762D01*
Y00973744D01*
Y00973707D01*
X00256563Y00973660D01*
Y00973596D01*
X00256554Y00973531D01*
X00256517Y00973374D01*
X00256462Y00973189D01*
X00256388Y00972995D01*
X00256277Y00972801D01*
X00256203Y00972708D01*
X00256129Y00972616D01*
X00256120Y00972606D01*
X00256110Y00972597D01*
X00256083Y00972569D01*
X00256046Y00972542D01*
X00256000Y00972505D01*
X00255944Y00972468D01*
X00255870Y00972421D01*
X00255796Y00972366D01*
X00255704Y00972320D01*
X00255602Y00972274D01*
X00255491Y00972218D01*
X00255371Y00972172D01*
X00255232Y00972135D01*
X00255093Y00972089D01*
X00254936Y00972061D01*
X00254770Y00972033D01*
X00254788Y00972024D01*
X00254825Y00972005D01*
X00254881Y00971969D01*
X00254955Y00971932D01*
X00255121Y00971830D01*
X00255204Y00971765D01*
X00255278Y00971710D01*
X00255297Y00971691D01*
X00255343Y00971645D01*
X00255417Y00971571D01*
X00255509Y00971478D01*
X00255611Y00971349D01*
X00255731Y00971210D01*
X00255851Y00971044D01*
X00255981Y00970859D01*
X00257081Y00969121D01*
X00256027D01*
X00255186Y00970452D01*
Y00970461D01*
X00255167Y00970480D01*
X00255149Y00970508D01*
X00255121Y00970545D01*
X00255056Y00970646D01*
X00254973Y00970776D01*
X00254872Y00970915D01*
X00254770Y00971062D01*
X00254668Y00971201D01*
X00254576Y00971330D01*
X00254566Y00971340D01*
X00254539Y00971377D01*
X00254492Y00971432D01*
X00254428Y00971497D01*
X00254289Y00971636D01*
X00254215Y00971700D01*
X00254141Y00971756D01*
X00254132Y00971765D01*
X00254113Y00971774D01*
X00254076Y00971793D01*
X00254021Y00971821D01*
X00253965Y00971848D01*
X00253901Y00971876D01*
X00253753Y00971922D01*
X00253743D01*
X00253725Y00971932D01*
X00253688D01*
X00253642Y00971941D01*
X00253577Y00971950D01*
X00253503D01*
X00253401Y00971959D01*
X00252311D01*
Y00969121D01*
X00251460D01*
Y00975519D01*
X00254428D01*
X00254502Y00975509D01*
D02*
G37*
G36*
X00384521Y00728971D02*
X00384604D01*
X00384706Y00728962D01*
X00384817Y00728943D01*
X00384946Y00728925D01*
X00385214Y00728878D01*
X00385492Y00728804D01*
X00385769Y00728703D01*
X00385899Y00728638D01*
X00386028Y00728564D01*
X00386037Y00728555D01*
X00386056Y00728546D01*
X00386093Y00728518D01*
X00386130Y00728481D01*
X00386185Y00728444D01*
X00386250Y00728388D01*
X00386324Y00728324D01*
X00386398Y00728250D01*
X00386472Y00728167D01*
X00386555Y00728083D01*
X00386721Y00727871D01*
X00386879Y00727621D01*
X00387017Y00727344D01*
Y00727334D01*
X00387036Y00727307D01*
X00387045Y00727260D01*
X00387073Y00727205D01*
X00387091Y00727131D01*
X00387119Y00727038D01*
X00387156Y00726937D01*
X00387184Y00726826D01*
X00387211Y00726706D01*
X00387248Y00726567D01*
X00387295Y00726280D01*
X00387332Y00725957D01*
X00387350Y00725624D01*
Y00725615D01*
Y00725578D01*
Y00725522D01*
X00387341Y00725458D01*
Y00725365D01*
X00387332Y00725273D01*
X00387322Y00725152D01*
X00387304Y00725032D01*
X00387258Y00724764D01*
X00387193Y00724468D01*
X00387100Y00724172D01*
X00386971Y00723886D01*
X00386962Y00723876D01*
X00386953Y00723849D01*
X00386934Y00723812D01*
X00386897Y00723766D01*
X00386860Y00723701D01*
X00386814Y00723627D01*
X00386694Y00723460D01*
X00386536Y00723276D01*
X00386352Y00723091D01*
X00386139Y00722906D01*
X00385889Y00722748D01*
X00385880Y00722739D01*
X00385852Y00722730D01*
X00385815Y00722712D01*
X00385769Y00722684D01*
X00385695Y00722656D01*
X00385621Y00722628D01*
X00385529Y00722591D01*
X00385427Y00722554D01*
X00385316Y00722517D01*
X00385196Y00722480D01*
X00384937Y00722425D01*
X00384641Y00722379D01*
X00384336Y00722360D01*
X00384244D01*
X00384179Y00722370D01*
X00384096Y00722379D01*
X00383994Y00722388D01*
X00383892Y00722397D01*
X00383772Y00722425D01*
X00383522Y00722480D01*
X00383245Y00722564D01*
X00383106Y00722619D01*
X00382977Y00722684D01*
X00382848Y00722767D01*
X00382718Y00722850D01*
X00382709Y00722859D01*
X00382690Y00722869D01*
X00382653Y00722896D01*
X00382607Y00722943D01*
X00382561Y00722989D01*
X00382496Y00723054D01*
X00382431Y00723128D01*
X00382357Y00723202D01*
X00382284Y00723294D01*
X00382210Y00723405D01*
X00382126Y00723516D01*
X00382052Y00723636D01*
X00381988Y00723775D01*
X00381914Y00723913D01*
X00381858Y00724061D01*
X00381803Y00724228D01*
X00382635Y00724422D01*
Y00724413D01*
X00382644Y00724394D01*
X00382663Y00724357D01*
X00382681Y00724311D01*
X00382700Y00724256D01*
X00382727Y00724182D01*
X00382801Y00724034D01*
X00382894Y00723867D01*
X00383005Y00723701D01*
X00383143Y00723544D01*
X00383291Y00723405D01*
X00383310Y00723387D01*
X00383365Y00723350D01*
X00383458Y00723303D01*
X00383578Y00723239D01*
X00383735Y00723183D01*
X00383911Y00723128D01*
X00384123Y00723091D01*
X00384355Y00723081D01*
X00384428D01*
X00384475Y00723091D01*
X00384539D01*
X00384613Y00723100D01*
X00384789Y00723128D01*
X00384983Y00723165D01*
X00385187Y00723229D01*
X00385399Y00723322D01*
X00385593Y00723442D01*
X00385603D01*
X00385612Y00723460D01*
X00385677Y00723507D01*
X00385760Y00723581D01*
X00385862Y00723692D01*
X00385982Y00723830D01*
X00386093Y00723988D01*
X00386194Y00724182D01*
X00386287Y00724394D01*
Y00724404D01*
X00386296Y00724422D01*
X00386305Y00724450D01*
X00386315Y00724496D01*
X00386333Y00724551D01*
X00386352Y00724616D01*
X00386379Y00724773D01*
X00386416Y00724958D01*
X00386453Y00725162D01*
X00386472Y00725384D01*
X00386481Y00725624D01*
Y00725633D01*
Y00725661D01*
Y00725707D01*
Y00725763D01*
X00386472Y00725827D01*
Y00725910D01*
X00386463Y00726003D01*
X00386453Y00726105D01*
X00386426Y00726327D01*
X00386379Y00726567D01*
X00386324Y00726807D01*
X00386250Y00727048D01*
Y00727057D01*
X00386241Y00727076D01*
X00386222Y00727103D01*
X00386204Y00727149D01*
X00386148Y00727260D01*
X00386065Y00727390D01*
X00385963Y00727538D01*
X00385834Y00727695D01*
X00385686Y00727834D01*
X00385510Y00727963D01*
X00385501D01*
X00385482Y00727972D01*
X00385455Y00727991D01*
X00385418Y00728009D01*
X00385372Y00728028D01*
X00385316Y00728055D01*
X00385187Y00728111D01*
X00385020Y00728167D01*
X00384835Y00728213D01*
X00384632Y00728250D01*
X00384419Y00728259D01*
X00384355D01*
X00384299Y00728250D01*
X00384234D01*
X00384170Y00728240D01*
X00384003Y00728203D01*
X00383809Y00728157D01*
X00383615Y00728083D01*
X00383411Y00727982D01*
X00383310Y00727926D01*
X00383217Y00727852D01*
X00383208Y00727843D01*
X00383199Y00727834D01*
X00383171Y00727806D01*
X00383134Y00727778D01*
X00383097Y00727732D01*
X00383051Y00727676D01*
X00382995Y00727621D01*
X00382949Y00727547D01*
X00382894Y00727464D01*
X00382829Y00727371D01*
X00382774Y00727279D01*
X00382718Y00727168D01*
X00382672Y00727048D01*
X00382626Y00726918D01*
X00382579Y00726780D01*
X00382542Y00726632D01*
X00381692Y00726844D01*
Y00726854D01*
X00381701Y00726891D01*
X00381720Y00726946D01*
X00381747Y00727020D01*
X00381775Y00727103D01*
X00381812Y00727205D01*
X00381858Y00727316D01*
X00381914Y00727436D01*
X00382043Y00727695D01*
X00382210Y00727954D01*
X00382311Y00728083D01*
X00382413Y00728213D01*
X00382524Y00728324D01*
X00382653Y00728435D01*
X00382663Y00728444D01*
X00382681Y00728462D01*
X00382727Y00728481D01*
X00382774Y00728518D01*
X00382848Y00728564D01*
X00382921Y00728610D01*
X00383023Y00728656D01*
X00383125Y00728703D01*
X00383245Y00728758D01*
X00383374Y00728804D01*
X00383513Y00728851D01*
X00383661Y00728897D01*
X00383818Y00728934D01*
X00383985Y00728952D01*
X00384160Y00728971D01*
X00384345Y00728980D01*
X00384447D01*
X00384521Y00728971D01*
D02*
G37*
G36*
X00381082Y00728860D02*
Y00728823D01*
Y00728767D01*
X00381072Y00728693D01*
X00381063Y00728610D01*
X00381045Y00728518D01*
X00381026Y00728425D01*
X00380989Y00728324D01*
Y00728314D01*
X00380980Y00728305D01*
X00380961Y00728250D01*
X00380924Y00728167D01*
X00380869Y00728055D01*
X00380795Y00727926D01*
X00380703Y00727778D01*
X00380601Y00727630D01*
X00380471Y00727473D01*
Y00727464D01*
X00380453Y00727455D01*
X00380407Y00727399D01*
X00380323Y00727316D01*
X00380203Y00727196D01*
X00380065Y00727057D01*
X00379889Y00726891D01*
X00379676Y00726706D01*
X00379445Y00726512D01*
X00379436Y00726502D01*
X00379399Y00726475D01*
X00379343Y00726428D01*
X00379279Y00726373D01*
X00379196Y00726299D01*
X00379094Y00726216D01*
X00378992Y00726123D01*
X00378872Y00726021D01*
X00378641Y00725800D01*
X00378410Y00725578D01*
X00378299Y00725467D01*
X00378197Y00725356D01*
X00378105Y00725254D01*
X00378031Y00725152D01*
Y00725143D01*
X00378012Y00725134D01*
X00377994Y00725106D01*
X00377975Y00725069D01*
X00377910Y00724967D01*
X00377836Y00724847D01*
X00377772Y00724699D01*
X00377707Y00724542D01*
X00377670Y00724367D01*
X00377651Y00724200D01*
Y00724191D01*
Y00724182D01*
X00377661Y00724126D01*
X00377670Y00724034D01*
X00377698Y00723932D01*
X00377735Y00723802D01*
X00377799Y00723673D01*
X00377883Y00723544D01*
X00377994Y00723414D01*
X00378012Y00723396D01*
X00378058Y00723359D01*
X00378123Y00723313D01*
X00378225Y00723248D01*
X00378354Y00723192D01*
X00378502Y00723137D01*
X00378678Y00723100D01*
X00378872Y00723091D01*
X00378927D01*
X00378964Y00723100D01*
X00379075Y00723109D01*
X00379205Y00723137D01*
X00379343Y00723174D01*
X00379501Y00723239D01*
X00379649Y00723322D01*
X00379787Y00723433D01*
X00379806Y00723451D01*
X00379843Y00723497D01*
X00379898Y00723571D01*
X00379954Y00723682D01*
X00380018Y00723812D01*
X00380074Y00723978D01*
X00380111Y00724163D01*
X00380129Y00724376D01*
X00380934Y00724293D01*
Y00724283D01*
X00380924Y00724256D01*
Y00724209D01*
X00380915Y00724145D01*
X00380897Y00724071D01*
X00380878Y00723988D01*
X00380850Y00723886D01*
X00380823Y00723784D01*
X00380749Y00723562D01*
X00380638Y00723340D01*
X00380573Y00723229D01*
X00380490Y00723118D01*
X00380407Y00723017D01*
X00380314Y00722924D01*
X00380305Y00722915D01*
X00380286Y00722906D01*
X00380259Y00722878D01*
X00380213Y00722850D01*
X00380157Y00722813D01*
X00380092Y00722776D01*
X00380018Y00722730D01*
X00379926Y00722684D01*
X00379824Y00722638D01*
X00379713Y00722591D01*
X00379593Y00722554D01*
X00379464Y00722517D01*
X00379325Y00722490D01*
X00379177Y00722462D01*
X00379020Y00722453D01*
X00378853Y00722443D01*
X00378761D01*
X00378696Y00722453D01*
X00378622Y00722462D01*
X00378530Y00722471D01*
X00378428Y00722490D01*
X00378326Y00722508D01*
X00378086Y00722573D01*
X00377846Y00722665D01*
X00377725Y00722721D01*
X00377605Y00722785D01*
X00377494Y00722869D01*
X00377393Y00722961D01*
X00377383Y00722970D01*
X00377365Y00722980D01*
X00377346Y00723017D01*
X00377309Y00723054D01*
X00377263Y00723100D01*
X00377217Y00723165D01*
X00377171Y00723229D01*
X00377115Y00723313D01*
X00377023Y00723488D01*
X00376930Y00723710D01*
X00376893Y00723821D01*
X00376875Y00723951D01*
X00376856Y00724080D01*
X00376847Y00724219D01*
Y00724237D01*
Y00724283D01*
X00376856Y00724357D01*
X00376866Y00724459D01*
X00376884Y00724570D01*
X00376921Y00724699D01*
X00376958Y00724838D01*
X00377014Y00724977D01*
X00377023Y00724995D01*
X00377041Y00725042D01*
X00377078Y00725115D01*
X00377134Y00725217D01*
X00377208Y00725328D01*
X00377300Y00725467D01*
X00377411Y00725605D01*
X00377541Y00725763D01*
X00377559Y00725781D01*
X00377605Y00725837D01*
X00377651Y00725883D01*
X00377698Y00725929D01*
X00377753Y00725984D01*
X00377827Y00726059D01*
X00377901Y00726132D01*
X00377994Y00726216D01*
X00378086Y00726308D01*
X00378197Y00726410D01*
X00378317Y00726512D01*
X00378447Y00726632D01*
X00378595Y00726752D01*
X00378742Y00726881D01*
X00378752Y00726891D01*
X00378770Y00726909D01*
X00378807Y00726937D01*
X00378853Y00726974D01*
X00378909Y00727029D01*
X00378974Y00727085D01*
X00379122Y00727205D01*
X00379279Y00727344D01*
X00379427Y00727482D01*
X00379556Y00727602D01*
X00379612Y00727649D01*
X00379658Y00727695D01*
X00379667Y00727704D01*
X00379695Y00727732D01*
X00379732Y00727769D01*
X00379778Y00727824D01*
X00379824Y00727889D01*
X00379880Y00727954D01*
X00379991Y00728111D01*
X00376838D01*
Y00728869D01*
X00381082D01*
Y00728860D01*
D02*
G37*
G36*
X00220361Y00971266D02*
X00221230D01*
Y00970545D01*
X00220361D01*
Y00969010D01*
X00219575D01*
Y00970545D01*
X00216792D01*
Y00971266D01*
X00219723Y00975408D01*
X00220361D01*
Y00971266D01*
D02*
G37*
G36*
X00213982Y00975399D02*
X00214065D01*
X00214259Y00975389D01*
X00214462Y00975362D01*
X00214684Y00975334D01*
X00214888Y00975288D01*
X00214989Y00975260D01*
X00215072Y00975232D01*
X00215082D01*
X00215091Y00975223D01*
X00215147Y00975195D01*
X00215230Y00975158D01*
X00215331Y00975094D01*
X00215442Y00975010D01*
X00215563Y00974899D01*
X00215674Y00974770D01*
X00215784Y00974622D01*
Y00974613D01*
X00215794Y00974604D01*
X00215831Y00974548D01*
X00215868Y00974455D01*
X00215923Y00974335D01*
X00215969Y00974197D01*
X00216016Y00974030D01*
X00216043Y00973855D01*
X00216053Y00973660D01*
Y00973651D01*
Y00973633D01*
Y00973596D01*
X00216043Y00973549D01*
Y00973485D01*
X00216034Y00973420D01*
X00215997Y00973263D01*
X00215942Y00973078D01*
X00215868Y00972884D01*
X00215757Y00972690D01*
X00215683Y00972597D01*
X00215609Y00972505D01*
X00215599Y00972495D01*
X00215590Y00972486D01*
X00215563Y00972458D01*
X00215526Y00972431D01*
X00215479Y00972394D01*
X00215424Y00972357D01*
X00215350Y00972311D01*
X00215276Y00972255D01*
X00215184Y00972209D01*
X00215082Y00972163D01*
X00214971Y00972107D01*
X00214851Y00972061D01*
X00214712Y00972024D01*
X00214573Y00971978D01*
X00214416Y00971950D01*
X00214250Y00971922D01*
X00214268Y00971913D01*
X00214305Y00971895D01*
X00214361Y00971858D01*
X00214435Y00971821D01*
X00214601Y00971719D01*
X00214684Y00971654D01*
X00214758Y00971599D01*
X00214777Y00971580D01*
X00214823Y00971534D01*
X00214897Y00971460D01*
X00214989Y00971367D01*
X00215091Y00971238D01*
X00215211Y00971099D01*
X00215331Y00970933D01*
X00215461Y00970748D01*
X00216561Y00969010D01*
X00215507D01*
X00214666Y00970341D01*
Y00970350D01*
X00214647Y00970369D01*
X00214629Y00970397D01*
X00214601Y00970434D01*
X00214536Y00970535D01*
X00214453Y00970665D01*
X00214351Y00970804D01*
X00214250Y00970951D01*
X00214148Y00971090D01*
X00214056Y00971220D01*
X00214046Y00971229D01*
X00214018Y00971266D01*
X00213972Y00971321D01*
X00213908Y00971386D01*
X00213769Y00971525D01*
X00213695Y00971589D01*
X00213621Y00971645D01*
X00213612Y00971654D01*
X00213593Y00971663D01*
X00213556Y00971682D01*
X00213501Y00971710D01*
X00213445Y00971737D01*
X00213381Y00971765D01*
X00213233Y00971811D01*
X00213223D01*
X00213205Y00971821D01*
X00213168D01*
X00213122Y00971830D01*
X00213057Y00971839D01*
X00212983D01*
X00212881Y00971848D01*
X00211790D01*
Y00969010D01*
X00210940D01*
Y00975408D01*
X00213908D01*
X00213982Y00975399D01*
D02*
G37*
%LPC*%
G36*
X00174316Y00974807D02*
X00172300D01*
Y00972690D01*
X00174205D01*
X00174316Y00972699D01*
X00174445Y00972708D01*
X00174593Y00972717D01*
X00174741Y00972736D01*
X00174889Y00972764D01*
X00175019Y00972801D01*
X00175037Y00972810D01*
X00175074Y00972828D01*
X00175130Y00972856D01*
X00175204Y00972893D01*
X00175287Y00972949D01*
X00175370Y00973013D01*
X00175453Y00973096D01*
X00175518Y00973189D01*
X00175527Y00973198D01*
X00175546Y00973235D01*
X00175573Y00973291D01*
X00175610Y00973365D01*
X00175638Y00973448D01*
X00175666Y00973540D01*
X00175684Y00973651D01*
X00175694Y00973762D01*
Y00973771D01*
Y00973781D01*
X00175684Y00973836D01*
X00175675Y00973919D01*
X00175657Y00974030D01*
X00175610Y00974141D01*
X00175555Y00974271D01*
X00175472Y00974391D01*
X00175361Y00974511D01*
X00175342Y00974520D01*
X00175296Y00974557D01*
X00175222Y00974604D01*
X00175102Y00974659D01*
X00174963Y00974714D01*
X00174778Y00974761D01*
X00174566Y00974798D01*
X00174316Y00974807D01*
D02*
G37*
G36*
X00338146Y00974696D02*
X00336130D01*
Y00972579D01*
X00338035D01*
X00338146Y00972588D01*
X00338275Y00972597D01*
X00338423Y00972606D01*
X00338571Y00972625D01*
X00338719Y00972653D01*
X00338849Y00972690D01*
X00338867Y00972699D01*
X00338904Y00972717D01*
X00338960Y00972745D01*
X00339034Y00972782D01*
X00339117Y00972838D01*
X00339200Y00972902D01*
X00339283Y00972986D01*
X00339348Y00973078D01*
X00339357Y00973087D01*
X00339376Y00973124D01*
X00339403Y00973180D01*
X00339440Y00973254D01*
X00339468Y00973337D01*
X00339496Y00973429D01*
X00339514Y00973540D01*
X00339524Y00973651D01*
Y00973660D01*
Y00973670D01*
X00339514Y00973725D01*
X00339505Y00973808D01*
X00339487Y00973919D01*
X00339440Y00974030D01*
X00339385Y00974160D01*
X00339302Y00974280D01*
X00339191Y00974400D01*
X00339172Y00974409D01*
X00339126Y00974446D01*
X00339052Y00974492D01*
X00338932Y00974548D01*
X00338793Y00974604D01*
X00338608Y00974650D01*
X00338396Y00974687D01*
X00338146Y00974696D01*
D02*
G37*
G36*
X00294966D02*
X00292950D01*
Y00972579D01*
X00294855D01*
X00294966Y00972588D01*
X00295095Y00972597D01*
X00295243Y00972606D01*
X00295391Y00972625D01*
X00295539Y00972653D01*
X00295669Y00972690D01*
X00295687Y00972699D01*
X00295724Y00972717D01*
X00295780Y00972745D01*
X00295854Y00972782D01*
X00295937Y00972838D01*
X00296020Y00972902D01*
X00296103Y00972986D01*
X00296168Y00973078D01*
X00296177Y00973087D01*
X00296196Y00973124D01*
X00296223Y00973180D01*
X00296260Y00973254D01*
X00296288Y00973337D01*
X00296316Y00973429D01*
X00296334Y00973540D01*
X00296344Y00973651D01*
Y00973660D01*
Y00973670D01*
X00296334Y00973725D01*
X00296325Y00973808D01*
X00296307Y00973919D01*
X00296260Y00974030D01*
X00296205Y00974160D01*
X00296122Y00974280D01*
X00296011Y00974400D01*
X00295992Y00974409D01*
X00295946Y00974446D01*
X00295872Y00974492D01*
X00295752Y00974548D01*
X00295613Y00974604D01*
X00295428Y00974650D01*
X00295216Y00974687D01*
X00294966Y00974696D01*
D02*
G37*
G36*
X00254326Y00974807D02*
X00252311D01*
Y00972690D01*
X00254215D01*
X00254326Y00972699D01*
X00254455Y00972708D01*
X00254603Y00972717D01*
X00254751Y00972736D01*
X00254899Y00972764D01*
X00255029Y00972801D01*
X00255047Y00972810D01*
X00255084Y00972828D01*
X00255140Y00972856D01*
X00255214Y00972893D01*
X00255297Y00972949D01*
X00255380Y00973013D01*
X00255463Y00973096D01*
X00255528Y00973189D01*
X00255537Y00973198D01*
X00255556Y00973235D01*
X00255583Y00973291D01*
X00255620Y00973365D01*
X00255648Y00973448D01*
X00255676Y00973540D01*
X00255694Y00973651D01*
X00255704Y00973762D01*
Y00973771D01*
Y00973781D01*
X00255694Y00973836D01*
X00255685Y00973919D01*
X00255667Y00974030D01*
X00255620Y00974141D01*
X00255565Y00974271D01*
X00255482Y00974391D01*
X00255371Y00974511D01*
X00255352Y00974520D01*
X00255306Y00974557D01*
X00255232Y00974604D01*
X00255112Y00974659D01*
X00254973Y00974714D01*
X00254788Y00974761D01*
X00254576Y00974798D01*
X00254326Y00974807D01*
D02*
G37*
G36*
X00219575Y00974132D02*
X00217560Y00971266D01*
X00219575D01*
Y00974132D01*
D02*
G37*
G36*
X00213806Y00974696D02*
X00211790D01*
Y00972579D01*
X00213695D01*
X00213806Y00972588D01*
X00213935Y00972597D01*
X00214083Y00972606D01*
X00214231Y00972625D01*
X00214379Y00972653D01*
X00214509Y00972690D01*
X00214527Y00972699D01*
X00214564Y00972717D01*
X00214620Y00972745D01*
X00214694Y00972782D01*
X00214777Y00972838D01*
X00214860Y00972902D01*
X00214943Y00972986D01*
X00215008Y00973078D01*
X00215017Y00973087D01*
X00215036Y00973124D01*
X00215063Y00973180D01*
X00215100Y00973254D01*
X00215128Y00973337D01*
X00215156Y00973429D01*
X00215174Y00973540D01*
X00215184Y00973651D01*
Y00973660D01*
Y00973670D01*
X00215174Y00973725D01*
X00215165Y00973808D01*
X00215147Y00973919D01*
X00215100Y00974030D01*
X00215045Y00974160D01*
X00214962Y00974280D01*
X00214851Y00974400D01*
X00214832Y00974409D01*
X00214786Y00974446D01*
X00214712Y00974492D01*
X00214592Y00974548D01*
X00214453Y00974604D01*
X00214268Y00974650D01*
X00214056Y00974687D01*
X00213806Y00974696D01*
D02*
G37*
%LPD*%
D12*
X00159200Y00963010D02*
Y00975010D01*
Y00963010D02*
X00183700D01*
Y00975010D01*
X00159200D02*
X00183700D01*
X00323030Y00963010D02*
Y00975010D01*
Y00963010D02*
X00347530D01*
Y00975010D01*
X00323030D02*
X00347530D01*
X00279850Y00963010D02*
Y00975010D01*
Y00963010D02*
X00304350D01*
Y00975010D01*
X00279850D02*
X00304350D01*
X00239210Y00963010D02*
Y00975010D01*
Y00963010D02*
X00263710D01*
Y00975010D01*
X00239210D02*
X00263710D01*
X00417866Y00708959D02*
Y00749001D01*
X00356834D02*
X00417866D01*
X00356834Y00708959D02*
Y00749001D01*
Y00708959D02*
X00417866D01*
X00198690Y00963010D02*
Y00975010D01*
Y00963010D02*
X00223190D01*
Y00975010D01*
X00198690D02*
X00223190D01*
M02*
